PathFileType	4	(X/Y/Z)	s10c0001.trc
DataRate	CameraRate	NumFrames	NumMarkers	Units	OrigDataRate	OrigDataStartFrame	OrigNumFrames
200	200	6	49	mm	200	1000	2000
Frame#	Time	racr			lacr			c7			jug			rlel			rdr			llel			ldr			s2			lic			ric			lasi			rasi			rpsi			lpsi			rgt			lgt			rth1			rth2			rth3			rth4			rlfc			rmfc			rsh1			rsh2			rsh3			rsh4			rlmal			rmmal			rcal			rtoe			rmt5			rmt1			lth1			lth2			lth4			lth3			llfc			lmfc			llmal			lmmal			lcal			lmt1			lmt5			lsh1			lsh2			lsh3			lsh4			ltoe			
		X1	Y1	Z1	X2	Y2	Z2	X3	Y3	Z3	X4	Y4	Z4	X5	Y5	Z5	X6	Y6	Z6	X7	Y7	Z7	X8	Y8	Z8	X9	Y9	Z9	X10	Y10	Z10	X11	Y11	Z11	X12	Y12	Z12	X13	Y13	Z13	X14	Y14	Z14	X15	Y15	Z15	X16	Y16	Z16	X17	Y17	Z17	X18	Y18	Z18	X19	Y19	Z19	X20	Y20	Z20	X21	Y21	Z21	X22	Y22	Z22	X23	Y23	Z23	X24	Y24	Z24	X25	Y25	Z25	X26	Y26	Z26	X27	Y27	Z27	X28	Y28	Z28	X29	Y29	Z29	X30	Y30	Z30	X31	Y31	Z31	X32	Y32	Z32	X33	Y33	Z33	X34	Y34	Z34	X35	Y35	Z35	X36	Y36	Z36	X37	Y37	Z37	X38	Y38	Z38	X39	Y39	Z39	X40	Y40	Z40	X41	Y41	Z41	X42	Y42	Z42	X43	Y43	Z43	X44	Y44	Z44	X45	Y45	Z45	X46	Y46	Z46	X47	Y47	Z47	X48	Y48	Z48	X49	Y49	Z49	
1000	5.0000	462.277557	1378.133423	684.236267	482.503326	1387.249023	306.043152	430.565063	1426.757568	485.782959	562.435120	1375.544800	502.898956	454.901276	1122.446289	817.549377	476.286926	910.661316	930.829834	481.913605	1109.229248	195.141953	536.170227	906.826233	90.978256	386.694092	931.920654	496.601715	534.745117	994.069458	351.083984	538.608154	1001.503052	648.734253	597.403381	918.531677	383.427032	581.373352	907.586182	638.469116	405.176575	972.429199	558.976990	405.706299	984.094055	445.457703	464.306305	853.811890	684.127808	471.078888	854.589294	308.308807	484.020111	729.218567	714.822388	506.462891	643.283508	700.427734	484.421112	561.507996	691.774658	543.242615	646.081055	691.807312	493.548706	459.321167	674.968994	481.584656	441.186066	562.397278	447.668640	360.070129	716.835144	468.782379	273.213287	714.653015	444.206482	190.558823	716.673096	500.486572	274.205139	691.490417	454.092438	84.984619	709.942505	483.546082	95.880043	630.070068	420.287964	50.325935	655.049561	652.007996	85.066818	711.287781	566.111511	42.155014	755.900391	609.737427	46.713497	658.367065	493.377960	746.210693	282.761688	515.193848	665.090271	292.296906	549.890076	666.247375	304.852997	494.182709	577.890442	301.069611	495.552460	472.749237	315.028381	491.124115	454.762024	425.444366	450.747040	103.862076	284.014221	469.863464	100.995613	362.300720	411.030945	58.724224	327.083374	612.113586	47.386902	347.334473	579.614502	46.099873	245.171768	446.228455	364.306335	269.851562	472.448334	281.446259	275.722687	451.902283	194.306274	273.325623	501.470215	283.099457	301.553314	653.369995	92.350929	295.263947	
1001	5.0050	462.288666	1378.135620	684.259399	482.526978	1387.249390	306.056396	430.512604	1426.774658	485.895111	562.437378	1375.552734	502.900513	454.859955	1122.374512	817.515381	476.320496	910.674805	930.839844	481.983398	1109.252686	195.134201	536.169128	906.841675	90.976799	386.713776	931.926941	496.634674	534.741028	994.059631	351.094391	538.633606	1001.510254	648.753723	597.412903	918.527771	383.421722	581.381653	907.604187	638.476685	405.326050	972.386414	558.992493	405.748474	984.088745	445.488556	464.369263	853.817322	684.163025	471.089050	854.591858	308.326141	484.030975	729.213135	714.829346	506.504791	643.287598	700.453064	484.426270	561.517761	691.785400	543.270569	646.115845	691.844666	493.564758	459.329376	674.993286	481.608887	441.192688	562.402405	447.720490	360.117157	716.854736	468.776276	273.207306	714.668518	444.171509	190.572144	716.667908	500.487854	274.205353	691.505127	454.132965	84.999512	709.973816	483.547821	95.883148	630.063110	420.365997	50.305637	655.087524	652.027100	85.053551	711.325317	566.205933	42.201931	755.891785	609.734253	46.712498	658.372314	493.384735	746.214966	282.771973	515.207458	665.075562	292.345734	549.847778	666.268799	304.804077	494.179504	577.897034	301.059814	495.555756	472.745972	315.009857	491.145782	454.774506	425.476074	450.771851	103.851074	284.037170	469.903595	101.013123	362.322662	411.053040	58.721577	327.078186	612.154541	47.404705	347.355560	579.612305	46.110901	245.171249	446.247375	364.298584	269.839172	472.463226	281.435394	275.744904	451.899323	194.295181	273.326782	501.478729	283.081329	301.561188	653.385315	92.351433	295.274597	
1002	5.0100	462.293457	1378.137695	684.278320	482.545410	1387.270630	306.088593	430.536011	1426.772949	485.921814	562.435730	1375.544067	502.907776	454.883423	1122.461426	817.561523	476.317841	910.691650	930.869141	482.017487	1109.283691	195.115341	536.152771	906.856445	90.974731	386.712280	931.940369	496.629120	534.759583	994.058105	351.085999	538.656982	1001.528015	648.768860	597.402283	918.548340	383.436310	581.381226	907.609131	638.484863	405.432068	972.364990	558.979675	405.745270	984.123291	445.506531	464.363739	853.825623	684.173889	471.094666	854.604736	308.325195	484.044067	729.237183	714.847656	506.509644	643.314392	700.484619	484.438629	561.522766	691.790039	543.318359	646.122498	691.889160	493.581512	459.339264	675.005798	481.635345	441.197449	562.404480	447.702576	360.088501	716.869141	468.774323	273.204041	714.658508	444.182281	190.571121	716.662842	500.479340	274.213135	691.477966	454.163208	84.997673	709.972229	483.558685	95.882477	630.073242	420.291321	50.486443	654.999939	652.039185	85.057259	711.335327	566.163757	42.168797	755.927734	609.738647	46.724758	658.389221	493.398041	746.201660	282.751709	515.193787	665.088989	292.296509	549.902649	666.259766	304.900848	494.179565	577.896790	301.060028	495.556580	472.735535	315.013397	491.191742	454.803192	425.483124	450.795593	103.862396	284.038727	469.939026	101.029205	362.345123	411.050812	58.741570	327.101898	612.172180	47.410942	347.346466	579.641235	46.097885	245.173508	446.240326	364.300385	269.845459	472.478088	281.431458	275.749054	451.926910	194.316498	273.322388	501.500397	283.075806	301.561066	653.394897	92.368797	295.306305	
1003	5.0150	462.289154	1378.143311	684.275024	482.556152	1387.273193	306.087555	430.528564	1426.781616	485.928101	562.429626	1375.533936	502.906494	454.811371	1122.375122	817.494080	476.329559	910.696350	930.885437	482.000092	1109.304565	195.086334	536.127991	906.871399	90.956268	386.702271	931.933594	496.630463	534.746460	994.068176	351.073273	538.640137	1001.534851	648.769531	597.393555	918.534363	383.427063	581.384094	907.611206	638.497559	405.470947	972.344727	558.983154	405.748535	984.109558	445.483795	464.383606	853.836426	684.169617	471.104492	854.606506	308.327850	484.043976	729.232361	714.842957	506.510803	643.348877	700.492615	484.437805	561.524231	691.796814	543.310791	646.132385	691.895203	493.583069	459.353119	675.007324	481.656128	441.198547	562.401733	447.704742	360.097656	716.878967	468.775482	273.204224	714.668274	444.197784	190.562363	716.664001	500.473053	274.211060	691.508972	454.180756	85.013535	709.991577	483.543884	95.879883	630.078430	420.306824	50.480305	655.020874	652.035034	85.067032	711.324585	566.244568	42.220840	755.910522	609.735657	46.712662	658.376770	493.397827	746.219238	282.735443	515.193787	665.088989	292.296509	549.888489	666.277283	304.852051	494.202240	577.896790	301.061981	495.537750	472.730896	315.018799	491.190735	454.801422	425.472626	450.807159	103.875748	284.031860	469.955933	101.036224	362.347931	411.074890	58.735039	327.095032	612.181580	47.415855	347.357361	579.638489	46.128918	245.175751	446.255981	364.298187	269.828400	472.488251	281.438812	275.738037	451.918274	194.298416	273.319000	501.502625	283.094513	301.565094	653.397827	92.378807	295.294281	
1004	5.0200	462.277344	1378.152832	684.281555	482.539001	1387.282227	306.076874	430.520355	1426.781250	485.926453	562.420532	1375.543091	502.912506	454.802460	1122.373169	817.488892	476.330200	910.704346	930.891418	481.974213	1109.321533	195.092697	536.115234	906.873230	90.911644	386.709167	931.942871	496.601440	534.748108	994.066589	351.081146	538.628784	1001.524475	648.758057	597.393494	918.530029	383.428192	581.374939	907.613220	638.485962	405.359741	972.390259	558.967957	405.731445	984.112854	445.476990	464.367615	853.836670	684.153748	471.093933	854.602966	308.307007	484.033356	729.246643	714.836609	506.498413	643.315674	700.470947	484.430817	561.521179	691.781067	543.275452	646.131958	691.865417	493.580261	459.351562	674.985962	481.663422	441.194122	562.392456	447.735382	360.119446	716.846497	468.772369	273.204315	714.660522	444.183411	190.571594	716.662415	500.477570	274.215729	691.503113	454.179108	85.011986	709.972900	483.528748	95.880409	630.071838	420.269836	50.490898	655.010376	652.039062	85.061157	711.326904	566.239502	42.220829	755.892212	609.748352	46.711807	658.385803	493.419403	746.207886	282.751251	515.235291	665.070068	292.345734	549.888367	666.276001	304.851624	494.195740	577.902344	301.040192	495.565704	472.753784	315.004211	491.193970	454.781433	425.462128	450.804047	103.880295	284.031616	469.959839	101.044342	362.326172	411.056915	58.742409	327.090363	612.166077	47.419735	347.348999	579.644531	46.097111	245.183289	446.256073	364.296326	269.822968	472.504730	281.433868	275.726562	451.933380	194.284439	273.323517	501.474213	283.089294	301.542053	653.406799	92.381104	295.277374	
1005	5.0250	462.269897	1378.133545	684.255737	482.540527	1387.278809	306.076904	430.535095	1426.780884	485.862885	562.422302	1375.528564	502.910461	454.915436	1122.472778	817.595459	476.352783	910.710571	930.903687	482.006042	1109.330444	195.043884	536.088928	906.893494	90.879539	386.692108	931.929138	496.588348	534.745056	994.066895	351.062561	538.585083	1001.516235	648.743042	597.393616	918.540039	383.426392	581.361877	907.612122	638.463501	405.247620	972.422363	558.956299	405.727814	984.106812	445.443939	464.325836	853.814941	684.127197	471.099152	854.592773	308.287170	484.017578	729.238220	714.829102	506.474731	643.325867	700.438538	484.411041	561.511780	691.762756	543.266541	646.119080	691.831238	493.565460	459.345154	674.975891	481.649323	441.182373	562.375000	447.682129	360.087372	716.849670	468.761932	273.203369	714.646240	444.192230	190.569000	716.677734	500.474823	274.201996	691.478516	454.131165	85.007904	709.947693	483.560425	95.883850	630.070190	420.218475	50.501038	654.977051	652.026367	85.076729	711.298950	566.211853	42.216396	755.886902	609.737549	46.712433	658.373840	493.397369	746.216980	282.744141	515.235291	665.070068	292.345734	549.873413	666.267395	304.795715	494.115387	577.892761	300.993347	495.564667	472.740753	315.003052	491.153320	454.788849	425.429871	450.782501	103.875244	284.001312	469.926666	101.027718	362.300079	411.052734	58.735672	327.070801	612.149109	47.414253	347.331360	579.644958	46.103062	245.177475	446.259918	364.299988	269.823975	472.479126	281.422546	275.720703	451.922211	194.297226	273.318604	501.501038	283.078186	301.544800	653.382263	92.375130	295.268738	
